# xmcd CD database file
#
# Track frame offsets:
#	150
#	31100
#	91604
#	143682
#	178014
#
# Disc length: 3133 seconds
#
# Revision: 0
# Processed by: cddbd v1.5.2PL0 Copyright (c) Steve Scherf et al.
# Submitted via: CDex 1.51
#
DISCID=300c3b05
DTITLE=Masada - Live In Italy - 8/31/94 Disc 1
DYEAR=1900
DGENRE=Jazz
TTITLE0=Jair
TTITLE1=Sansanah
TTITLE2=Beer Sheba
TTITLE3=Midbar
TTITLE4=Karaim
EXTD=
EXTT0=
EXTT1=
EXTT2=
EXTT3=
EXTT4=
PLAYORDER=
